# xmcd
#
# Track frame offsets:
#	150
#	14223
#	28964
#	50197
#	65866
#	93933
#	108594
#	126333
#	146018
#	160294
#	184800
#	204740
#	229005
#	247222
#	281365
#	313471
#
# Disc length: 4605 seconds
#
# Revision: 0
# Processed by: cddbd v1.5.2PL0 Copyright (c) Steve Scherf et al.
# Submitted via: EasyCDDAExtractor 11.9.9.666
#
DISCID=0811fb10
DTITLE=Harem Scarem - Pilgrim's Progress
DYEAR=1986
DGENRE=
TTITLE0=Last Stand Man
TTITLE1=Miracle Mile
TTITLE2=Open Up and Bleed
TTITLE3=Run On Down the Line
TTITLE4=Lowdown
TTITLE5=Animal Tracks
TTITLE6=Cold Change
TTITLE7=Pilgrim's Progress
TTITLE8=Hard Rain
TTITLE9=Let Me In
TTITLE10=Dead of the Night (B-Side to Miracle Mile Single)
TTITLE11=Sweet Thing (B-Side of Hard Rain Single)
TTITLE12=Pilgrim's Progress (Live)Let Me In (Live)
TTITLE13=Let Me In (Live)
TTITLE14=Dogman (Title Track of 1984 EP)
TTITLE15=Love Attraction (from Asleep at the Wheel 1984)
EXTD=
EXTT0=
EXTT1=
EXTT2=
EXTT3=
EXTT4=
EXTT5=
EXTT6=
EXTT7=
EXTT8=
EXTT9=
EXTT10=
EXTT11=
EXTT12=
EXTT13=
EXTT14=
EXTT15=
PLAYORDER=
